<?xml version="1.0" standalone="no"?><!DOCTYPE svg PUBLIC "-//W3C//DTD SVG 1.1//EN" "http://www.w3.org/Graphics/SVG/1.1/DTD/svg11.dtd"><svg t="1547612401683" class="icon" style="" viewBox="0 0 1024 1024" version="1.1" xmlns="http://www.w3.org/2000/svg" p-id="1188" xmlns:xlink="http://www.w3.org/1999/xlink" width="200" height="200"><defs><style type="text/css"></style></defs><path d="M510.743892 61.305251c126.034485 0.675382 239.692081 45.553499 333.611124 150.424988 141.779074 158.318772 153.021116 399.855874 27.952632 572.026118-61.867046 85.161588-138.646734 142.634558-226.875171 164.550707-67.708078 16.806781-139.40705 14.510482-209.121831 11.917424-85.143169-3.180436-160.879084-47.351448-228.170676-109.466134C37.77893 693.502797 16.734638 427.777807 151.138744 246.001787 215.362464 159.14765 295.006386 108.286262 384.180358 79.409584 424.871105 66.240657 468.465996 66.907852 510.743892 61.305251zM258.052752 254.419504c0 176.338171 0 348.564697 0 520.008394 170.629145 0 338.450339 0 505.968633 0 0-174.948521 0-347.176071 0-520.008394C594.154603 254.419504 427.090657 254.419504 258.052752 254.419504z" p-id="1189"></path><path d="M511.000741 736.696552c-76.500325-154.959258-150.668535-305.192887-227.169883-460.160331 152.195308 0 300.255435 0 453.937606 0C662.570809 429.135734 588.233754 579.969021 511.000741 736.696552z" p-id="1190"></path><path d="M274.142196 295.039643C351.659687 452.172403 425.156608 601.154529 500.450455 753.783719c-76.06235 0-149.809981 0-226.307236 0C274.142196 605.748151 274.142196 455.867562 274.142196 295.039643z" p-id="1191"></path><path d="M749.26838 755.75563c-76.491115 0-149.807934 0-228.450039 0 75.460646-153.111167 149.365866-303.056224 223.276203-453.004351 1.723248 0.960885 3.448542 1.924839 5.173836 2.886747C749.26838 454.329533 749.26838 603.031273 749.26838 755.75563z" p-id="1192"></path></svg>