<?xml version="1.0" standalone="no"?><!DOCTYPE svg PUBLIC "-//W3C//DTD SVG 1.1//EN" "http://www.w3.org/Graphics/SVG/1.1/DTD/svg11.dtd"><svg t="1547608712301" class="icon" style="" viewBox="0 0 1024 1024" version="1.1" xmlns="http://www.w3.org/2000/svg" p-id="5555" xmlns:xlink="http://www.w3.org/1999/xlink" width="200" height="200"><defs><style type="text/css"></style></defs><path d="M694.26678 581.165675c-27.840272 67.860663-93.960918 116.581138-172.261682 116.581139-102.661003 0-185.31181-82.650807-185.31181-185.31181S419.344095 327.123195 522.005098 327.123195c80.91079 0 150.51147 52.20051 174.871707 125.281223L984.849618 353.223449c-66.120646-192.271878-248.82243-330.603229-462.84452-330.603228C251.432455 21.750212 32.190314 240.992353 32.190314 511.564996s219.242141 489.814783 489.814784 489.814783c206.192014 0 381.93373-127.02124 455.014443-307.112999l-282.752761-113.101105z" fill="#3BAC56" p-id="5556"></path><path d="M522.005098 1024C240.122345 1024 10.440102 794.317757 10.440102 511.564996 10.440102 229.682243 240.122345 0 522.005098 0c218.372133 0 412.384027 138.331351 483.724724 344.523364l6.960068 20.880204-328.863212 113.971113-6.960068-20.880204C654.246389 392.373832 591.605777 348.003398 522.005098 348.003398 431.524214 348.003398 358.4435 421.084112 358.4435 511.564996s73.080714 163.561597 163.561598 163.561597c66.990654 0 127.02124-40.020391 152.251487-102.661003l7.830076-20.010195 322.773152 129.631266-7.830076 20.010195c-78.300765 195.751912-264.482583 321.903144-475.024639 321.903144zM522.005098 43.500425C263.612574 43.500425 53.940527 253.172472 53.940527 511.564996c0 258.392523 209.672048 468.064571 468.064571 468.064571 185.31181 0 349.743415-107.011045 426.304163-274.052677L705.57689 609.005947c-35.670348 67.860663-105.271028 110.491079-183.571792 110.491079C408.033985 719.497026 314.943076 626.406117 314.943076 511.564996 314.943076 397.593883 408.033985 304.502974 522.005098 304.502974c80.91079 0 153.991504 46.980459 187.921835 119.191164l247.082413-85.260833C886.538658 160.951572 714.276975 43.500425 522.005098 43.500425z" fill="#08633B" p-id="5557"></path></svg>