<?xml version="1.0" ?><!DOCTYPE svg  PUBLIC '-//W3C//DTD SVG 1.1//EN'  'http://www.w3.org/Graphics/SVG/1.1/DTD/svg11.dtd'><svg height="256px" style="enable-background:new 0 0 256 256;" version="1.1" viewBox="0 0 256 256" width="256px" xml:space="preserve" xmlns="http://www.w3.org/2000/svg" xmlns:xlink="http://www.w3.org/1999/xlink"><g id="Background_1_" style="enable-background:new    ;"><g id="Background"><g><path d="M249.422,30.68c-2.721-4.986-5.816-9.537-9.793-13.521     c-3.992-3.998-8.709-7.588-13.703-10.314c-8.381-4.576-18.788-6.856-29.002-6.856H59.075c-10.444,0-20.542,2.345-29.265,6.948     c-5.022,2.651-9.588,6.147-13.502,10.127c-3.932,3.998-7.491,8.488-10.046,13.572c-4.289,8.533-6.274,18.477-6.274,28.649     v137.431c0,10.326,1.671,20.678,6.296,29.134c2.681,4.9,6.191,9.861,10.087,13.794c3.934,3.971,8.583,7.226,13.503,9.956     c8.465,4.7,18.842,6.413,29.201,6.413h137.849c10.568,0,20.399-1.523,28.982-6.401c4.739-2.692,9.879-6.114,13.687-9.966     c3.923-3.969,7.2-8.851,9.886-13.798c4.566-8.416,6.533-18.875,6.533-29.132V59.284C256.012,48.978,254.031,39.124,249.422,30.68     z" style="fill-rule:evenodd;clip-rule:evenodd;fill:#1989C8;"/></g></g></g><g id="Shape_1_1_" style="enable-background:new    ;"><g id="Shape_1"><g><path d="M97.396,138.936c23.78,0,14.415,0.017,37.703,0.017     c-0.188-10.444-2.423-14.207-3.933-14.376c-23.826,0-4.903-0.009-32.721-0.009c0.061-0.952,1.248-24.032,1.711-44.651h30.967     c0.759-7.608-1.071-14.187-4.518-14.604c-42.003,0-16.319,0.046-54.921,0.046c0.846-3.268,1.864-7.133,3.037-10.841     c1.802-5.696,3.832-11.117,4.768-13.345c-0.765-0.476-2.093-0.146-5.421,0.646c-3.878,1.158-6.114,2.305-9.387,5.107     c-1.708,1.462-2.974,3.352-3.993,5.457c-3.536,8.688-10.581,32.93-19.719,49.619c14.18-0.85,21.152-9.007,23.5-15.481     c0.874-2.41,1.773-4.649,2.288-6.693c5.981-0.046,10.551-0.049,18.837-0.049c0.087,8.2-0.119,24.132-1.449,44.707     c-16.61,0-24.322-0.116-33.836-0.116c-4.892,1.327-7.483,9.267-8.266,14.46c0.046,0.046,0.092,0.092,0.138,0.138     c21.417,0,17.475,0,40.296,0c-0.984,7.76-1.297,11.573-4.575,22.944c-5.571,16.796-14.218,30.188-26.335,42.239     c-3.235,3.218-7.735,7.293-12.147,10.768c-0.138,0.184-0.276,0.367-0.414,0.552c4.15,3.599,18.522-0.054,21.948-1.242     c2.776-0.963,5.575-1.706,7.592-3.451c7.711-6.67,17.196-21.411,23.258-43.514c21.914,25.576,26.99,33.265,32.509,39.648h0.552     c1.743-6.452,2.98-16.668,0.69-21.672c-0.153-0.705-0.728-1.538-1.335-2.479c-10.986-13.144-10.833-12.888-22.761-25.983     c-7.073,5.667-8.69,7.072-8.69,7.072s1.647-6.182,2.143-8.358C96.493,148.536,96.611,145.385,97.396,138.936z M216.435,63.021     c-35.401,0-28.577,0.056-70.083,0.056c-0.9,0-2.043,0.842-2.043,1.964c0,79.036-0.008,11.016-0.008,130.923     c0,0.825,0.762,1.854,2.041,1.854c8.018,0,8.875,0.012,11.088-0.01c0.637,0.004,1.936,7.142,4.764,14.982     c15.087-9.789,21.833-13.955,25.261-14.923c9.708-0.046,27.491-0.059,29.018-0.059c0.787,0,1.738-0.966,1.738-1.902     c0-87.302,0.052-41.637,0.052-131.17C218.262,63.679,217.077,63.085,216.435,63.021z M203.377,181.97     c0,0.567-0.576,1.152-1.053,1.152c-0.925,0-9.195,0.008-15.077,0.035c-0.208,0-0.55,0.138-0.82,0.324     c-3.699,2.552-9.214,6.085-18.239,11.541c-1.552-5.238-2.928-11.879-3.314-11.882c-1.34,0.014,0.373,0.006-4.483,0.006     c-0.775,0-1.237-0.623-1.237-1.123c0-72.644,0.005-55.591,0.005-103.474c0-0.68,0.692-1.19,1.237-1.19     c25.146,0,20.291-0.033,41.739-0.033c0.523,0,1.275,0.503,1.275,1.143C203.409,132.711,203.377,129.079,203.377,181.97z" style="fill-rule:evenodd;clip-rule:evenodd;fill:#FFFFFF;"/></g></g></g></svg>