<!DOCTYPE svg PUBLIC "-//W3C//DTD SVG 20010904//EN" "http://www.w3.org/TR/2001/REC-SVG-20010904/DTD/svg10.dtd">
<svg version="1.0" xmlns="http://www.w3.org/2000/svg" width="512px" height="512px" viewBox="0 0 5120 5120" preserveAspectRatio="xMidYMid meet">
<g id="layer101" fill="#000000" stroke="none">
 <path d="M0 2560 l0 -2560 2560 0 2560 0 0 2560 0 2560 -2560 0 -2560 0 0 -2560z"/>
 </g>
<g id="layer102" fill="#727272" stroke="none">
 <path d="M0 2560 l0 -2560 2560 0 2560 0 0 2560 0 2560 -2560 0 -2560 0 0 -2560z m2750 2364 c234 -42 453 -192 598 -408 l52 -78 0 121 c0 146 12 185 64 206 29 12 98 15 378 14 189 -1 354 -4 367 -8 13 -3 34 -19 45 -34 20 -27 21 -42 24 -360 l3 -331 58 -61 c31 -33 66 -72 75 -87 18 -27 21 -28 112 -28 52 0 94 -4 94 -8 0 -5 -23 -51 -51 -102 l-50 -94 10 -61 c6 -34 11 -78 11 -98 l0 -37 85 0 c51 0 85 -4 85 -10 0 -6 -35 -81 -79 -168 l-78 -157 -5 -165 c-7 -203 -20 -245 -107 -337 -53 -56 -64 -63 -118 -74 l-60 -12 -42 -84 -41 -83 0 -648 c0 -356 -4 -684 -10 -729 -17 -149 -98 -264 -229 -327 -61 -29 -74 -31 -171 -31 -171 0 -124 -33 -723 508 -163 147 -299 272 -302 277 -4 6 -77 10 -183 10 l-177 0 -400 -365 c-474 -432 -471 -430 -635 -430 -97 0 -110 2 -171 31 -122 58 -211 175 -229 305 -5 35 -10 364 -10 731 l0 668 -41 83 -42 84 -60 12 c-53 11 -66 19 -114 69 -29 31 -61 70 -69 85 -27 51 -44 159 -44 290 l0 127 -80 160 c-44 88 -80 165 -80 171 0 7 29 9 83 8 l82 -2 2 29 c2 16 8 61 14 99 l11 70 -43 80 c-23 44 -46 84 -50 90 -26 28 -8 35 84 35 l94 0 26 37 c14 20 49 60 76 88 l50 51 3 336 c3 367 2 358 65 385 49 20 699 19 749 -2 52 -21 64 -60 64 -207 l0 -123 27 45 c70 120 197 250 316 324 207 129 423 167 687 120z"/>
 <path d="M2425 4665 c-141 -31 -253 -93 -348 -194 -122 -129 -180 -268 -192 -459 -6 -92 -13 -123 -35 -170 -35 -74 -107 -153 -176 -192 -40 -23 -70 -52 -111 -108 -31 -43 -128 -149 -215 -238 l-158 -161 0 -146 c0 -188 -15 -257 -73 -340 -10 -15 -4 -33 42 -119 l54 -101 1 -716 c1 -683 2 -717 20 -747 24 -41 65 -64 111 -64 62 0 32 -25 596 490 l334 305 270 5 c149 3 275 3 281 0 7 -3 49 -39 95 -81 46 -41 104 -93 129 -115 25 -21 47 -41 50 -44 9 -9 244 -224 285 -260 22 -19 67 -60 100 -90 109 -101 210 -187 232 -199 30 -15 88 -14 122 4 16 8 37 31 47 52 18 36 19 74 21 750 l1 712 53 101 c45 84 52 103 41 118 -57 81 -72 151 -72 339 l0 146 -163 166 c-89 91 -188 201 -220 244 -43 57 -71 84 -106 102 -57 28 -133 109 -168 179 -20 39 -28 77 -38 180 -20 213 -71 330 -205 467 -64 65 -90 84 -180 127 -148 71 -281 89 -425 57z m176 -535 c29 -8 64 -43 195 -197 87 -103 160 -189 162 -193 4 -9 -581 -13 -697 -5 l-100 7 47 57 c164 197 278 321 301 330 35 13 49 13 92 1z m-564 -1133 c69 -36 120 -88 152 -156 25 -54 26 -64 29 -256 4 -220 -2 -261 -50 -337 -61 -97 -161 -152 -278 -152 -139 0 -251 69 -308 192 -27 56 -27 60 -27 272 0 200 2 219 22 270 36 87 116 159 213 191 14 5 63 7 110 5 69 -2 95 -8 137 -29z m1349 0 c75 -38 140 -117 165 -199 19 -61 20 -88 17 -260 -4 -230 -14 -263 -107 -352 -123 -117 -299 -125 -437 -20 -46 36 -91 102 -109 161 -21 69 -21 400 0 470 22 76 73 143 136 181 75 45 101 52 199 48 68 -2 95 -8 136 -29z"/>
 <path d="M1785 2877 c-21 -12 -53 -42 -70 -65 l-30 -44 -3 -193 c-4 -217 3 -243 70 -300 87 -73 192 -72 271 3 61 58 67 83 67 287 0 197 -4 219 -54 273 -58 64 -175 82 -251 39z"/>
 <path d="M3145 2883 c-44 -23 -74 -53 -96 -95 -17 -33 -19 -60 -19 -223 0 -201 4 -219 59 -278 79 -86 192 -88 285 -7 60 53 68 91 64 301 l-3 184 -30 45 c-42 62 -94 90 -170 89 -35 0 -73 -6 -90 -16z"/>
 <path d="M1038 4271 l-3 -310 -81 -83 c-83 -84 -123 -150 -160 -258 -17 -50 -19 -90 -19 -428 l0 -373 37 -35 c42 -38 75 -43 118 -17 48 28 54 52 60 269 l5 202 185 188 c256 262 320 362 342 539 7 50 8 181 3 348 l-7 267 -239 0 -238 0 -3 -309z"/>
 <path d="M3595 4314 c-10 -366 -2 -429 71 -563 47 -86 95 -142 294 -344 l165 -168 5 -202 c6 -218 12 -242 60 -270 40 -24 74 -21 109 9 51 42 54 68 49 445 -4 289 -8 353 -22 399 -30 95 -84 181 -164 263 l-77 77 -3 310 -3 310 -238 0 -239 0 -7 -266z"/>
 </g>
<g id="layer103" fill="#cbcbcb" stroke="none">
 <path d="M0 2560 l0 -2560 2560 0 2560 0 0 2560 0 2560 -2560 0 -2560 0 0 -2560z m2765 2366 c230 -51 470 -220 589 -416 l46 -74 0 122 c0 147 12 186 64 207 29 12 101 15 392 15 l356 0 34 -34 34 -34 0 -334 0 -334 50 -49 c28 -28 62 -67 77 -87 l26 -38 93 0 c52 0 94 -4 94 -8 0 -4 -22 -50 -50 -102 l-50 -94 11 -65 c6 -36 13 -81 15 -98 l5 -33 79 0 c47 0 80 -4 80 -10 0 -6 -35 -81 -79 -168 l-79 -157 -3 -171 c-4 -168 -5 -171 -36 -235 -52 -103 -147 -179 -227 -179 -17 0 -30 -18 -64 -85 l-42 -85 0 -686 c0 -606 -2 -693 -17 -751 -31 -126 -132 -238 -254 -284 -48 -17 -74 -20 -151 -17 -136 5 -182 30 -388 216 -91 82 -273 246 -405 365 l-240 217 -168 0 -168 0 -402 -365 c-478 -435 -471 -430 -642 -430 -100 0 -115 3 -165 27 -111 55 -184 140 -220 256 -19 61 -20 95 -20 758 l0 694 -42 85 c-36 73 -46 85 -68 85 -80 2 -171 75 -223 179 -31 64 -32 67 -36 235 l-3 171 -79 157 c-44 87 -79 162 -79 168 0 6 33 10 79 10 l80 0 6 48 c4 26 11 70 16 99 8 41 7 57 -4 75 -27 43 -87 160 -87 169 0 5 42 9 93 9 l94 0 42 59 c24 32 58 71 77 86 l33 27 3 340 3 340 33 29 32 29 358 -1 c196 -1 368 -4 382 -8 14 -4 35 -22 47 -40 21 -31 23 -46 23 -165 l0 -131 28 45 c53 90 91 136 164 206 136 129 310 217 492 249 93 17 267 12 361 -9z"/>
 <path d="M2435 4665 c-124 -22 -246 -87 -342 -183 -133 -132 -186 -248 -203 -451 -12 -134 -25 -181 -72 -255 -30 -47 -127 -128 -168 -141 -10 -3 -40 -36 -67 -73 -26 -37 -125 -146 -219 -242 l-172 -175 -4 -185 c-4 -194 -5 -203 -58 -290 l-21 -35 48 -90 48 -90 6 185 c5 166 9 193 33 265 53 153 138 258 274 336 125 72 175 82 417 83 l210 1 151 -304 c170 -343 183 -361 264 -361 81 0 94 18 264 361 l151 304 210 -1 c241 -1 278 -8 411 -80 56 -30 100 -63 142 -109 74 -78 102 -125 139 -230 26 -76 28 -89 28 -262 0 -101 4 -182 9 -180 4 1 28 42 53 89 l44 87 -23 38 c-50 81 -52 91 -56 283 l-4 184 -178 182 c-97 101 -194 207 -214 238 -25 38 -53 64 -90 85 -139 80 -216 213 -216 376 -1 399 -389 711 -795 640z m191 -544 c28 -17 324 -357 332 -381 2 -7 -138 -10 -397 -10 -228 0 -401 4 -401 9 0 5 19 31 43 57 23 27 92 107 151 178 60 70 123 137 140 147 40 24 92 24 132 0z"/>
 <path d="M1785 2877 c-26 -14 -52 -42 -73 -77 l-33 -55 3 -192 3 -191 30 -44 c52 -73 153 -113 227 -89 47 16 105 66 128 112 18 34 20 59 20 219 0 193 -7 229 -53 278 -60 64 -176 82 -252 39z"/>
 <path d="M3145 2883 c-101 -53 -115 -92 -115 -323 0 -173 2 -188 23 -225 29 -52 95 -100 146 -109 80 -12 162 26 208 96 28 43 28 45 31 230 3 172 2 189 -17 225 -28 53 -40 66 -85 97 -32 21 -50 26 -100 26 -36 -1 -73 -7 -91 -17z"/>
 <path d="M1210 1600 c0 -401 3 -510 13 -510 10 0 61 45 282 249 28 26 108 98 178 161 158 140 177 172 143 238 -21 41 -37 52 -221 157 -93 54 -216 124 -272 156 -57 33 -107 59 -113 59 -7 0 -10 -175 -10 -510z"/>
 <path d="M3803 2060 c-45 -27 -167 -97 -270 -155 -103 -59 -200 -118 -215 -133 -36 -33 -46 -84 -25 -127 9 -18 53 -65 99 -105 46 -40 112 -100 148 -134 139 -132 342 -311 356 -314 12 -3 14 72 14 507 0 402 -3 511 -12 511 -7 -1 -50 -23 -95 -50z"/>
 </g>
<g id="layer104" fill="#ffffff" stroke="none">
 <path d="M0 2560 l0 -2560 2560 0 2560 0 0 2560 0 2560 -2560 0 -2560 0 0 -2560z m2770 2367 c177 -49 329 -131 441 -238 58 -56 135 -149 151 -184 36 -79 38 -77 38 61 0 145 9 176 55 200 40 21 733 21 774 0 49 -26 51 -42 51 -396 l0 -328 48 -44 c26 -23 63 -62 81 -86 l34 -44 91 3 c85 3 91 2 88 -17 -2 -10 -10 -26 -16 -34 -7 -8 -28 -44 -46 -80 -30 -60 -31 -68 -24 -130 8 -70 12 -108 13 -127 1 -9 25 -13 87 -13 47 0 84 -3 82 -7 -2 -5 -39 -78 -83 -163 l-80 -155 -5 -180 c-7 -214 -16 -243 -114 -340 -55 -54 -68 -63 -116 -71 l-55 -9 -42 -85 -43 -85 0 -696 c0 -676 -1 -697 -21 -762 -11 -36 -27 -71 -35 -78 -8 -6 -14 -16 -14 -21 0 -14 -91 -108 -115 -119 -11 -5 -27 -13 -35 -18 -99 -61 -248 -61 -376 0 -37 17 -100 67 -165 129 -14 14 -43 40 -65 59 -21 19 -82 73 -134 121 -52 48 -147 134 -210 190 -63 57 -117 106 -120 109 -3 3 -42 39 -87 79 l-81 72 -165 0 -164 0 -79 -71 c-43 -39 -99 -90 -124 -113 -25 -23 -90 -82 -145 -131 -55 -49 -104 -94 -110 -100 -5 -6 -52 -49 -104 -96 -52 -46 -104 -93 -115 -104 -164 -155 -248 -195 -398 -189 -59 2 -113 17 -158 45 -8 5 -24 13 -35 18 -24 10 -135 127 -135 142 0 6 -10 29 -22 52 l-23 42 -2 715 -3 715 -42 92 c-41 88 -44 92 -75 93 -34 0 -113 27 -113 39 0 4 -20 28 -45 54 -79 84 -88 116 -95 322 l-5 180 -82 158 c-46 87 -83 160 -83 163 0 2 38 4 85 4 81 0 85 1 86 23 1 12 1 25 0 29 0 4 5 40 13 80 13 70 13 73 -10 110 -13 21 -24 41 -24 45 0 5 -14 28 -30 53 -16 25 -30 48 -30 53 0 4 42 7 94 7 l95 0 44 58 c25 31 61 70 81 86 l36 28 0 337 c0 365 0 361 57 390 29 15 702 15 756 0 55 -15 67 -52 67 -208 0 -133 2 -135 39 -55 13 30 96 132 140 173 129 123 351 238 490 256 25 3 47 8 50 10 11 11 279 -3 331 -18z"/>
 <path d="M2425 4660 c-173 -34 -326 -139 -426 -291 -48 -74 -72 -128 -88 -204 -32 -148 -28 -268 12 -380 8 -22 74 -159 147 -305 73 -146 145 -290 159 -320 14 -30 72 -145 127 -255 112 -221 132 -245 208 -245 77 0 98 33 350 549 31 63 60 119 64 125 5 6 57 110 115 231 128 264 146 329 135 467 -24 296 -165 485 -453 608 -77 33 -236 42 -350 20z m196 -532 c14 -7 42 -33 65 -58 38 -43 244 -286 273 -323 13 -16 -8 -17 -399 -17 l-411 0 23 29 c164 202 287 341 318 363 30 20 98 23 131 6z"/>
 <path d="M1807 2886 c-39 -14 -67 -43 -105 -108 -21 -37 -22 -47 -19 -228 3 -183 4 -190 28 -224 14 -19 37 -44 51 -56 51 -40 158 -65 173 -40 3 6 13 10 22 10 25 0 92 59 110 98 15 31 18 66 18 222 0 102 -3 197 -7 212 -5 14 -23 41 -40 59 -64 63 -149 84 -231 55z"/>
 <path d="M3155 2881 c-45 -21 -86 -56 -106 -92 -10 -17 -15 -77 -17 -202 -5 -217 6 -259 80 -317 106 -84 236 -49 310 82 14 26 17 59 16 211 0 163 -2 183 -22 219 -56 106 -160 146 -261 99z"/>
 </g>

</svg>